<?xml version="1.0" encoding="utf-8"?>
<!-- Generator: Adobe Illustrator 15.0.2, SVG Export Plug-In . SVG Version: 6.00 Build 0)  -->
<!DOCTYPE svg PUBLIC "-//W3C//DTD SVG 1.1//EN" "http://www.w3.org/Graphics/SVG/1.1/DTD/svg11.dtd">
<svg version="1.1" id="Layer_1" xmlns="http://www.w3.org/2000/svg" xmlns:xlink="http://www.w3.org/1999/xlink" x="0px" y="0px"
	 width="8px" height="8px" viewBox="0 0 8 8" enable-background="new 0 0 8 8" xml:space="preserve">
<g id="Artboard">
</g>
<g id="Guides">
	<g id="Minor" display="none">
	</g>
	<g id="Major">
	</g>
</g>
<path id="Instructions" d="M8,4c0-2.209-1.791-4-4-4S0,1.791,0,4s1.791,4,4,4S8,6.209,8,4z M4,5.426c0-0.199,0-0.398,0-0.598
	c-0.863,0-0.988,0-1.852,0c-0.09,0-0.164-0.074-0.164-0.164c0-0.443,0-0.885,0-1.328c0-0.09,0.074-0.164,0.164-0.164
	c0.863,0,0.988,0,1.852,0c0-0.199,0-0.398,0-0.598c0-0.152,0.174-0.203,0.279-0.115c0.573,0.475,1.112,0.95,1.684,1.426
	C6.004,3.92,6.02,3.961,6.016,4C6.02,4.039,6.004,4.08,5.963,4.115C5.391,4.592,4.852,5.066,4.279,5.541
	C4.174,5.629,4,5.578,4,5.426z"/>
</svg>
