<?xml version="1.0" encoding="utf-8"?>
<!-- Generator: Adobe Illustrator 15.0.2, SVG Export Plug-In . SVG Version: 6.00 Build 0)  -->
<!DOCTYPE svg PUBLIC "-//W3C//DTD SVG 1.1//EN" "http://www.w3.org/Graphics/SVG/1.1/DTD/svg11.dtd">
<svg version="1.1" id="Layer_1" xmlns="http://www.w3.org/2000/svg" xmlns:xlink="http://www.w3.org/1999/xlink" x="0px" y="0px"
	 width="8px" height="8px" viewBox="0 0 8 8" enable-background="new 0 0 8 8" xml:space="preserve">
<g id="Artboard">
</g>
<g id="Guides">
	<g id="Minor" display="none">
	</g>
	<g id="Major">
	</g>
</g>
<path id="Instructions" d="M4,0C1.791,0,0,1.791,0,4s1.791,4,4,4s4-1.791,4-4S6.209,0,4,0z M5.426,4C5.227,4,5.027,4,4.827,4
	c0,0.863,0,0.988,0,1.852c0,0.09-0.074,0.164-0.164,0.164c-0.442,0-0.885,0-1.328,0c-0.089,0-0.163-0.074-0.163-0.164
	c0-0.862,0-0.987,0-1.852C2.973,4,2.773,4,2.574,4C2.421,4,2.371,3.826,2.458,3.721c0.475-0.572,0.95-1.111,1.426-1.684
	C3.919,1.996,3.96,1.98,4,1.984C4.04,1.98,4.081,1.996,4.116,2.037c0.476,0.572,0.95,1.111,1.426,1.684C5.629,3.826,5.579,4,5.426,4
	z"/>
</svg>
