<?xml version="1.0" encoding="utf-8"?>
<!-- Generator: Adobe Illustrator 15.0.2, SVG Export Plug-In . SVG Version: 6.00 Build 0)  -->
<!DOCTYPE svg PUBLIC "-//W3C//DTD SVG 1.1//EN" "http://www.w3.org/Graphics/SVG/1.1/DTD/svg11.dtd">
<svg version="1.1" id="Layer_1" xmlns="http://www.w3.org/2000/svg" xmlns:xlink="http://www.w3.org/1999/xlink" x="0px" y="0px"
	 width="8px" height="8px" viewBox="0 0 8 8" enable-background="new 0 0 8 8" xml:space="preserve">
<g id="Artboard">
</g>
<g id="Guides">
	<g id="Minor" display="none">
	</g>
	<g id="Major">
	</g>
</g>
<path id="Instructions" d="M4.001,7.999c2.209,0,4-1.791,4-4s-1.791-4-4-4s-4,1.791-4,4S1.792,7.999,4.001,7.999z M2.575,3.999
	c0.199,0,0.398,0,0.598,0c0-0.863,0-0.988,0-1.852c0-0.09,0.074-0.164,0.164-0.164c0.443,0,0.885,0,1.328,0
	c0.09,0,0.164,0.074,0.164,0.164c0,0.863,0,0.988,0,1.852c0.198,0,0.397,0,0.598,0c0.152,0,0.203,0.174,0.115,0.279
	c-0.476,0.574-0.95,1.113-1.426,1.684C4.081,6.003,4.04,6.02,4.001,6.016C3.962,6.02,3.921,6.003,3.886,5.962
	C3.409,5.391,2.935,4.852,2.46,4.278C2.372,4.173,2.423,3.999,2.575,3.999z"/>
</svg>
