<?xml version="1.0" encoding="utf-8"?>
<!-- Generator: Adobe Illustrator 15.0.2, SVG Export Plug-In . SVG Version: 6.00 Build 0)  -->
<!DOCTYPE svg PUBLIC "-//W3C//DTD SVG 1.0//EN" "http://www.w3.org/TR/2001/REC-SVG-20010904/DTD/svg10.dtd">
<svg version="1.0" xmlns="http://www.w3.org/2000/svg" xmlns:xlink="http://www.w3.org/1999/xlink" x="0px" y="0px" width="8px"
	 height="8px" viewBox="0 0 8 8" enable-background="new 0 0 8 8" xml:space="preserve">
<g id="Artboard">
	<g id="New_Symbol_1">
		<path fill="#010101" d="M6.187,4.146C6.041,4.001,5.924,3.885,5.833,3.793C5.479,3.439,5.903,3.156,5.903,3.156l1.768-1.768
			c0,0,0.354-0.354,0-0.707c-0.355-0.353,0,0-0.355-0.353C6.963-0.023,6.609,0.33,6.609,0.33L4.843,2.096
			c0,0-0.284,0.424-0.637,0.07C4.114,2.074,3.998,1.958,3.852,1.812c-0.707-0.707-1.414,0-1.414,0L2.084,2.166l0.707,0.707
			l0.354,0.354L3.57,3.651l0.211,0.213l0.354,0.354l0.636,0.636l0.354,0.354l0.707,0.708l0.354-0.354
			C6.187,5.561,6.893,4.854,6.187,4.146z M6.787,1.211c-0.098-0.097-0.098-0.255,0-0.354c0.098-0.097,0.256-0.097,0.354,0
			c0.097,0.1,0.098,0.257,0,0.354S6.884,1.311,6.787,1.211z M1.378,2.873c0.195-0.195,0.513-0.195,0.707,0
			c0.194,0.194,0.194,0.512,0,0.706L1.024,4.641c-0.195,0.194-0.513,0.194-0.707,0s-0.194-0.512,0-0.706L1.378,2.873z M2.438,3.933
			c0.195-0.194,0.513-0.194,0.707,0c0.195,0.194,0.195,0.513,0,0.707L2.084,5.701C1.89,5.896,1.572,5.896,1.377,5.702V5.701
			c-0.194-0.193-0.195-0.512,0-0.707L2.438,3.933z M3.359,4.854c0.195-0.195,0.513-0.194,0.708,0C4.26,5.048,4.26,5.365,4.065,5.56
			L3.004,6.621c-0.195,0.194-0.513,0.194-0.707,0s-0.195-0.512,0-0.707L3.359,4.854z M4.42,5.914C4.614,5.72,4.932,5.72,5.126,5.913
			c0.195,0.195,0.195,0.513,0,0.707L4.065,7.682c-0.195,0.195-0.513,0.195-0.707,0c-0.194-0.194-0.194-0.512,0-0.707L4.42,5.914z"/>
	</g>
</g>
<g id="Guides">
	<g id="Minor" display="none">
	</g>
	<g id="Major">
	</g>
</g>
<g id="Instructions">
</g>
</svg>
