<?xml version="1.0" encoding="utf-8"?>
<!-- Generator: Adobe Illustrator 15.0.2, SVG Export Plug-In . SVG Version: 6.00 Build 0)  -->
<!DOCTYPE svg PUBLIC "-//W3C//DTD SVG 1.0//EN" "http://www.w3.org/TR/2001/REC-SVG-20010904/DTD/svg10.dtd">
<svg version="1.0" xmlns="http://www.w3.org/2000/svg" xmlns:xlink="http://www.w3.org/1999/xlink" x="0px" y="0px" width="8px"
	 height="8px" viewBox="0 0 8 8" enable-background="new 0 0 8 8" xml:space="preserve">
<g id="Artboard">
	<g>
		<path fill="#010101" d="M4.001,4.166L7.57,1.014C7.546,1.011,7.525,1,7.5,1h-7C0.484,1,0.472,1.008,0.457,1.009L4.001,4.166z"/>
		<path fill="#010101" d="M8,1.5c0-0.06-0.015-0.115-0.034-0.168L5.445,3.558l2.488,2.177C7.972,5.664,8,5.586,8,5.5V1.5z"/>
		<path fill="#010101" d="M0.039,1.307C0.014,1.366,0,1.432,0,1.5v4c0,0.073,0.018,0.141,0.045,0.203L2.558,3.55L0.039,1.307z"/>
		<path fill="#010101" d="M5.067,3.891L3.999,4.834L2.934,3.886l-2.46,2.108C0.482,5.995,0.491,6,0.5,6h6.978L5.067,3.891z"/>
	</g>
</g>
<g id="Guides">
	<g id="Minor" display="none">
	</g>
	<g id="Major">
	</g>
</g>
<g id="Instructions">
</g>
</svg>
