<?xml version="1.0" standalone="no"?>
<!DOCTYPE svg PUBLIC "-//W3C//DTD SVG 1.1//EN" "http://www.w3.org/Graphics/SVG/1.1/DTD/svg11.dtd" >
<svg xmlns="http://www.w3.org/2000/svg">
<metadata>
This is a custom SVG webfont generated by Font Squirrel.
Copyright   : Copyright 2012 Adobe Systems Incorporated All rights reserved
Designer    : Me
Foundry     : PYRS Fontlab Ltd  Made with FontLab
</metadata>
<defs>
<font id="FacadesRegular" horiz-adv-x="834" >
<font-face units-per-em="1000" ascent="750" descent="-250" />
<missing-glyph horiz-adv-x="500" />
<glyph unicode=" "  horiz-adv-x="500" />
<glyph unicode="&#x09;" horiz-adv-x="500" />
<glyph unicode="&#xa0;" horiz-adv-x="500" />
<glyph unicode="k" horiz-adv-x="808" />
<glyph unicode="l" horiz-adv-x="464" />
<glyph unicode="m" horiz-adv-x="808" />
<glyph unicode="n" horiz-adv-x="526" />
<glyph unicode="&#x2000;" horiz-adv-x="355" />
<glyph unicode="&#x2001;" horiz-adv-x="710" />
<glyph unicode="&#x2002;" horiz-adv-x="355" />
<glyph unicode="&#x2003;" horiz-adv-x="710" />
<glyph unicode="&#x2004;" horiz-adv-x="236" />
<glyph unicode="&#x2005;" horiz-adv-x="177" />
<glyph unicode="&#x2006;" horiz-adv-x="118" />
<glyph unicode="&#x2007;" horiz-adv-x="118" />
<glyph unicode="&#x2008;" horiz-adv-x="88" />
<glyph unicode="&#x2009;" horiz-adv-x="142" />
<glyph unicode="&#x200a;" horiz-adv-x="39" />
<glyph unicode="&#x202f;" horiz-adv-x="142" />
<glyph unicode="&#x205f;" horiz-adv-x="177" />
<glyph unicode="&#xe000;" horiz-adv-x="500" d="M0 0v0v0v0v0z" />
<glyph unicode="&#xe001;" horiz-adv-x="850" d="M190 319q0 9 6.5 15.5t16.5 6.5h57q10 0 16.5 -6.5t6.5 -15.5t-6.5 -15.5t-16.5 -6.5h-57q-10 0 -16.5 6.5t-6.5 15.5zM222 170.5q3 9.5 11 13.5l49 29q21 11 31 -8q5 -7 2 -16.5t-11 -13.5l-49 -28q-19 -12 -31 7q-5 7 -2 16.5zM241 462.5q-3 9.5 2 16.5q11 18 31 7 l49 -28q19 -12 9 -31q-11 -18 -31 -7l-49 29q-8 4 -11 13.5zM329 59l28 49q12 19 31 9q18 -11 7 -31l-29 -49q-4 -8 -13.5 -11t-16.5 2q-18 11 -7 31zM353 560q-11 20 7 31q7 5 16.5 2t13.5 -11l29 -49q11 -20 -7 -31q-19 -10 -31 9zM474 -2v57q0 9 6.5 16t15.5 7t15.5 -7 t6.5 -16v-57q0 -10 -6.5 -16.5t-15.5 -6.5t-15.5 6.5t-6.5 16.5zM512 545v57q0 10 6.5 16.5t15.5 6.5t15.5 -6.5t6.5 -16.5v-57q0 -10 -6.5 -16.5t-15.5 -6.5t-15.5 6.5t-6.5 16.5zM602 67q-11 21 8 31q7 5 16.5 2t13.5 -11l28 -49q12 -19 -7 -31q-7 -5 -16.5 -2t-13.5 11z M635 514l29 49q4 8 13.5 11t16.5 -2q18 -11 7 -31l-28 -49q-11 -20 -31 -9q-18 11 -7 31zM698 173q11 18 31 7l49 -29q8 -4 11 -13.5t-2 -16.5q-12 -19 -31 -7l-49 28q-19 12 -9 31zM715 411.5q3 9.5 11 13.5l49 28q19 12 31 -7q5 -7 2 -16.5t-11 -13.5l-49 -29 q-21 -11 -31 8q-5 7 -2 16.5zM737 281q0 9 7 15.5t16 6.5h57q10 0 16.5 -6.5t6.5 -15.5t-6.5 -15.5t-16.5 -6.5h-57q-9 0 -16 6.5t-7 15.5z" />
<glyph unicode="&#xe002;" horiz-adv-x="787" d="M60 250v42q0 52 36.5 88.5t88.5 36.5h292v83l166 -125l-166 -125v83h-292q-17 0 -29.5 -12t-12.5 -29v-42h-83zM143 125l167 125v-83h292q17 0 29 12t12 29v42h84v-42q0 -52 -36.5 -88.5t-88.5 -36.5h-292v-83z" />
<glyph unicode="&#xe003;" horiz-adv-x="737" d="M83 357h71v36q0 44 32 75.5t76 31.5h214q44 0 75.5 -31.5t31.5 -75.5v-36h-71v36q0 15 -10.5 25.5t-25.5 10.5h-214q-14 0 -25 -10.5t-11 -25.5v-36h72l-107 -143zM154 107v36h72v-36q0 -15 11 -25.5t25 -10.5h214q15 0 25.5 10.5t10.5 25.5v36h-73l107 143l108 -143h-71 v-36q0 -44 -31.5 -75.5t-75.5 -31.5h-214q-44 0 -76 31.5t-32 75.5z" />
<glyph unicode="&#xe004;" horiz-adv-x="637" d="M83 221q0 97 69 166t167 69h79v79l118 -118l-118 -118v78l-79 1q-65 1 -111 -45.5t-46 -111.5t46 -111t111 -46t111 46t46 111h78q0 -98 -69 -167t-166 -69t-166.5 69.5t-69.5 166.5z" />
<glyph unicode="&#xe005;" horiz-adv-x="775" d="M113 211v138h306q-65 64 -119 119l88 87l275 -275l-275 -275l-88 88l119 118h-306z" />
<glyph unicode="&#xe006;" horiz-adv-x="775" d="M113 280l87 88l119 -119v306h138v-306l118 119l88 -88l-275 -275z" />
<glyph unicode="&#xe007;" horiz-adv-x="775" d="M113 280l275 275l88 -87l-119 -119h306v-138h-306l119 -118l-88 -88z" />
<glyph unicode="&#xe008;" horiz-adv-x="775" d="M113 280l275 275l275 -275l-88 -88l-118 119v-306h-138v306q-65 -64 -119 -119z" />
<glyph unicode="&#xe009;" d="M91 311q0 135 95 229.5t231 94.5t231 -94.5t95 -229.5q0 -137 -94.5 -231.5t-231.5 -94.5q-136 0 -231 95t-95 231zM228 261l228 -6l-90 -83l61 -60l197 198l-197 198l-61 -60l89 -89h-227v-98z" />
<glyph unicode="&#xe00a;" d="M91 310q0 136 95.5 231.5t231.5 95.5q135 0 229.5 -95.5t94.5 -231.5t-94.5 -231t-229.5 -95q-137 0 -232 95t-95 231zM218 300l199 -197l198 197l-60 61l-89 -89v227h-99l-5 -228l-83 90z" />
<glyph unicode="&#xe00b;" d="M91 311q0 135 95 229.5t231 94.5t231 -94.5t95 -229.5q0 -136 -95 -231t-231 -95q-137 0 -231.5 94.5t-94.5 231.5zM209 310l198 -198l60 60l-89 83l227 6v98h-226q49 49 88 89l-60 60z" />
<glyph unicode="&#xe00c;" d="M91 310q0 136 95.5 231.5t231.5 95.5q135 0 229.5 -95.5t94.5 -231.5t-94.5 -231t-229.5 -95q-136 0 -231.5 95t-95.5 231zM218 320l61 -60l83 89l5 -227h99v226q49 -49 89 -88l60 60l-198 198z" />
<glyph unicode="&#xe00d;" horiz-adv-x="841" d="M78 320q0 142 100 242.5t243 100.5q142 0 242.5 -100.5t100.5 -242.5t-100.5 -242.5t-242.5 -100.5t-242.5 100.5t-100.5 242.5zM153 321q0 -111 78.5 -189.5t189.5 -78.5q110 0 188.5 78.5t78.5 189.5t-78.5 189t-188.5 78q-111 0 -189.5 -78t-78.5 -189zM260 280h187 l-73 -74l47 -46l160 160l-160 160l-47 -46l73 -74h-187v-80z" />
<glyph unicode="&#xe00e;" horiz-adv-x="841" d="M78 320q0 142 100.5 242.5t242.5 100.5q143 0 243 -100.5t100 -242.5t-100.5 -242.5t-242.5 -100.5t-242.5 100.5t-100.5 242.5zM154 320q0 -111 78.5 -189t189.5 -78t189 78t78 189t-78 189.5t-189 78.5t-189.5 -78.5t-78.5 -189.5zM260 320l161 -160l160 160l-47 47 l-73 -74v187h-80v-187l-74 74z" />
<glyph unicode="&#xe00f;" horiz-adv-x="841" d="M78 320q0 142 100.5 242.5t242.5 100.5t242.5 -100.5t100.5 -242.5t-100 -242.5t-243 -100.5q-142 0 -242.5 100.5t-100.5 242.5zM154 319q0 -111 78 -189t189 -78t189.5 78t78.5 189t-79 189.5t-189 78.5q-111 0 -189 -78.5t-78 -189.5zM260 320l161 -160l46 46l-73 74 h187v80h-187l73 74l-46 46z" />
<glyph unicode="&#xe010;" horiz-adv-x="841" d="M78 320q0 142 100.5 242.5t242.5 100.5t242.5 -100.5t100.5 -242.5t-100.5 -242.5t-242.5 -100.5q-143 0 -243 100.5t-100 242.5zM153 320q0 -111 78 -189.5t189 -78.5q110 0 189 78.5t79 189.5t-78.5 189t-189.5 78t-189 -78t-78 -189zM260 320l47 -47l73 74v-187h81 v187l73 -74l47 47l-160 160z" />
<glyph unicode="&#xe011;" horiz-adv-x="742" d="M124 10v500l495 -249z" />
<glyph unicode="&#xe012;" horiz-adv-x="563" d="M94 0v500h125v-500h-125zM344 0v500h125v-500h-125z" />
<glyph unicode="&#xe013;" horiz-adv-x="750" d="M125 10v500l375 -250zM500 73h125v375h-125v-375z" />
<glyph unicode="&#xe014;" horiz-adv-x="750" d="M125 73h125v375h-125v-375zM250 260l375 250v-500z" />
<glyph unicode="&#xe015;" horiz-adv-x="750" d="M125 0v500h500v-500h-500z" />
<glyph unicode="&#xe016;" horiz-adv-x="750" d="M125 0h499v125h-499v-125zM125 188l250 312l250 -312h-500z" />
<glyph unicode="&#xe017;" horiz-adv-x="965" d="M161 60v380q0 60 60 60h522q32 0 46.5 -14t14.5 -46v-380q0 -60 -61 -60h-522q-60 0 -60 60zM358 105l286 144l-286 144v-288z" />
<glyph unicode="&#xe018;" horiz-adv-x="649" d="M70 185v138h183v175h143v-175h183v-138h-183v-185h-143v185h-183z" />
<glyph unicode="&#xe019;" horiz-adv-x="649" d="M69 193v125h512v-125h-512z" />
<glyph unicode="&#xe01a;" horiz-adv-x="651" d="M82 108l146 146l-145 143l97 99l145 -145l145 145l98 -99l-145 -143l146 -147l-99 -97l-145 146l-145 -146z" />
<glyph unicode="&#xe01b;" horiz-adv-x="769" d="M60 305q0 134 95 228.5t230 94.5t229.5 -94t94.5 -229q0 -136 -94 -230.5t-230 -94.5q-135 0 -230 94.5t-95 230.5zM217 205l67 -68l101 101l99 -100l68 67l-100 100l100 100l-68 67l-99 -100l-101 101l-67 -68l101 -100z" />
<glyph unicode="&#xe01c;" horiz-adv-x="770" d="M60.5 304q0.5 134 95.5 229q96 96 229.5 96t227.5 -95q96 -96 96.5 -229.5t-95.5 -229.5q-95 -95 -229.5 -95.5t-230.5 95.5q-94 95 -93.5 229zM194 352l1 -95l142 1l-1 -142l96 -1v143l140 -1l1 95h-141v142l-96 -1l1 -141h-143z" />
<glyph unicode="&#xe01d;" horiz-adv-x="770" d="M60.5 304q0.5 134 95.5 229q96 96 229.5 96t227.5 -95q96 -96 96.5 -229.5t-95.5 -229.5q-95 -95 -229.5 -95.5t-230.5 95.5q-94 95 -93.5 229zM194 352l1 -95l237 1l140 -1l1 95h-136h-243z" />
<glyph unicode="&#xe01e;" horiz-adv-x="785" d="M60 300q0 138 97 235t235 97t235.5 -97t97.5 -235q0 -137 -97.5 -234.5t-235.5 -97.5t-235 97.5t-97 234.5zM133 301q0 -80 46 -147l360 360q-67 46 -147 46q-107 0 -183 -76t-76 -183zM247 86q66 -45 145 -45q108 0 183.5 76t75.5 184q0 81 -44 145z" />
<glyph unicode="&#xe01f;" horiz-adv-x="830" d="M65 271l98 99l157 -156l336 366l109 -99l-428 -480z" />
<glyph unicode="&#xe020;" horiz-adv-x="798" d="M100 77v449q0 31 22 53t53 22h449q31 0 52.5 -22t21.5 -53v-449q0 -31 -21.5 -53t-52.5 -22h-449q-31 0 -53 22t-22 53zM172 289l177 -176l278 312l-71 64l-219 -237l-101 101z" />
<glyph unicode="&#xe021;" horiz-adv-x="798" d="M100 74v449q0 31 22 53t53 22h449q31 0 52.5 -22t21.5 -53v-449q0 -31 -21.5 -53t-52.5 -22h-449q-31 0 -53 22t-22 53zM160 74q0 -15 15 -15h449q6 0 10.5 4.5t4.5 10.5v449q0 15 -15 15h-449q-15 0 -15 -15v-449zM200 288l155 -154l243 273l-62 56l-191 -208l-89 89z " />
<glyph unicode="&#xe022;" horiz-adv-x="711" d="M40 367.5q0 100.5 70 170.5q71 71 171 71t171 -71q66 -65 67.5 -164t-56.5 -163l92 -32l103 -104q14 -17 12 -40t-18 -39t-38 -17.5t-40 11.5l-104 104l-32 90q-64 -57 -163 -55t-165 68q-70 70 -70 170.5zM103 367.5q0 -73.5 52 -125.5q53 -52 126 -52t125 52t52 125 t-52 126t-125 53t-126 -53q-52 -52 -52 -125.5z" />
<glyph unicode="&#xe023;" horiz-adv-x="711" d="M40 367.5q0 100.5 70 170.5q71 71 171 71t171 -71q66 -65 67.5 -164t-56.5 -163l92 -32l103 -104q14 -17 12 -40t-18 -39t-38 -17.5t-40 11.5l-104 104l-32 90q-64 -57 -163 -55t-165 68q-70 70 -70 170.5zM103 367.5q0 -73.5 52 -125.5q53 -52 126 -52t125 52t52 125 t-52 126t-125 53t-126 -53q-52 -52 -52 -125.5zM174 344v51h80v81h54v-81h79v-51h-79v-80h-54v80h-80z" />
<glyph unicode="&#xe024;" horiz-adv-x="711" d="M40 368q0 100 71 170t171 70t170 -70q65 -65 67 -164t-55 -163l91 -32l103 -104q14 -17 12 -40t-18 -39t-38 -17.5t-40 11.5l-104 104l-32 90q-65 -57 -163.5 -54.5t-163.5 67.5q-71 71 -71 171zM103 367.5q0 -73.5 52 -125.5q53 -52 126.5 -52t124.5 52q52 53 52 125.5 t-52 125.5q-52 52 -125 52t-126 -52q-52 -52 -52 -125.5zM174 332v76h213v-76h-213z" />
<glyph unicode="&#xe025;" horiz-adv-x="734" d="M60 253q0 110 77.5 188t187.5 78v-269h266v3q0 -110 -78 -187.5t-188 -77.5t-187.5 77.5t-77.5 187.5zM409 334v268q110 0 187.5 -77.5t77.5 -187.5v-3h-265z" />
<glyph unicode="&#xe026;" horiz-adv-x="744" d="M100 0v430h144v-430h-144zM300 0v320h144v-320h-144zM500 0v595h144v-595h-144z" />
<glyph unicode="&#xe027;" horiz-adv-x="589" d="M48 32l94 179l1 1q1 -8 8 -18t31 -23q16 -6 30 -6q17 0 26 6q13 -11 16 -12q17 -10 38 -10q19 0 37 10q4 2 14 12q13 -6 28 -6q13 0 29 6q22 10 31 23t10 18q1 -1 4 -1h2l94 -179l-100 -8l-63 -74l-83 131l-83 -131l-67 75zM52 422q0 18 6 25q4 6 74 6h2l-2 1q-1 1 -20 8 t-32.5 14.5t-13.5 12.5q-2 12 4 25q12 26 34 26q3 0 25.5 -13t24.5 -15l4 -1l-3 3q-48 48 -46 56q1 9 13 22q14 13 29 13q8 0 48 -47l4 -3l-2 4q-30 59 -22 70q7 8 20 14q11 4 20 4q16 0 40 -66l1 -2v2q0 71 7 75q9 6 25 6q15 0 24 -6q7 -4 7 -75v-2v2q0 1 9 20.5t17 32.5 t14 13q11 0 20 -4q14 -6 21 -14q7 -11 -23 -70v-4l1 3q40 47 49 47q16 0 30 -13q10 -11 13 -22q1 -3 -3 -9.5t-11 -13.5l-14 -13q-6 -7 -12.5 -13t-7.5 -7l-1 -3l3 1q2 2 25 15t27 13q23 0 32 -26q7 -15 4 -25q0 -5 -13.5 -12.5t-32 -14.5t-19.5 -8l-2 -1h2q71 0 74 -6 q6 -9 6 -25q0 -15 -6 -24q-4 -8 -74 -8h-2h2q1 -1 19.5 -8t32 -14t13.5 -12q2 -10 -4 -26q-10 -27 -32 -27q-4 0 -27 13t-25 15l-3 1l1 -1q1 -1 7.5 -7t13 -12.5t13.5 -14t11 -13.5t3 -9q-3 -12 -13 -22q-15 -15 -30 -15q-3 0 -13.5 10.5t-22.5 24t-13 14.5l-1 1v-3 q30 -60 23 -69q-10 -12 -21 -15q-12 -5 -20 -5q-6 0 -14 13.5t-16.5 32t-9.5 20.5v2v-2q0 -70 -7 -73q-8 -7 -24 -7q-17 0 -25 7q-7 3 -7 73v2l-1 -2q-1 -2 -4.5 -10.5t-7.5 -17t-9 -18t-10 -15t-9 -5.5q-7 0 -20 5q-10 3 -20 15q-8 9 22 69l2 3l-4 -1q-1 -1 -13 -14.5 t-22 -24t-13 -10.5q-14 0 -29 15q-12 12 -13 22q-2 8 46 56l3 1l-4 -1q-2 -2 -24.5 -15t-25.5 -13q-22 0 -34 27q-6 14 -4 26q0 5 14 12t32 14t20 8h2h-2q-70 0 -74 8q-6 7 -6 24zM135 422q0 -64 46 -109.5t111 -45.5q64 0 109 45.5t45 109.5q0 65 -45 110.5t-109 45.5 q-65 0 -111 -46t-46 -110zM194 422q0 -40 28.5 -68t69.5 -28q40 0 67.5 28t27.5 68q0 41 -27.5 69t-67.5 28q-41 0 -69.5 -28t-28.5 -69z" />
<glyph unicode="&#xe028;" horiz-adv-x="368" d="M37 336l9 38q39 15 66 23q30 10 59 10q49 0 78 -24q27 -24 27 -63q0 -2 -2 -28q-1 -15 -7 -37l-35 -123q-4 -12 -7 -34q-4 -17 -4 -29q0 -24 11 -33q10 -9 38 -9q7 0 29 4q12 4 23 8l-9 -38q-34 -13 -67 -25q-23 -8 -58 -8q-50 0 -79 24q-28 26 -28 63q0 10 2 30l7 35 l35 123q7 27 8 34q3 15 3 29q0 23 -10 33q-9 9 -37 9q-8 0 -28 -4zM165 555q0 33 24 55q25 22 59 22t59 -22q24 -22 24 -55t-24 -55q-25 -22 -59 -22t-59 22q-24 22 -24 55z" />
<glyph unicode="&#xe029;" horiz-adv-x="909" d="M100 37v407l207 -195zM139 0l207 211l108 -102l110 104l206 -213h-631zM150 497h608l-304 -289zM603 250l206 194v-407z" />
<glyph unicode="&#xe02a;" horiz-adv-x="894" d="M100 21v323v44l347 295l347 -295v-44v-323l-238 208l209 139l-318 257l-318 -257l209 -139zM139 -3l248 217h120l248 -217h-616z" />
<glyph unicode="&#xe02b;" horiz-adv-x="785" d="M100 71v438q0 31 21.5 52t51.5 21h439q30 0 51.5 -21t21.5 -52v-438q0 -31 -21.5 -52t-51.5 -21h-439q-30 0 -51.5 21t-21.5 52zM163 130q0 -22 16 -38t39 -16t39 15.5t16 38.5t-16 39t-39 16t-39 -16t-16 -39zM167 273q78 -2 136 -58q55 -57 57 -136h72 q-2 109 -79 186.5t-186 78.5v-71zM167 413q137 -1 235 -99t99 -235h72q-1 167 -120 286t-286 120v-72z" />
<glyph unicode="&#xe02c;" horiz-adv-x="825" d="M88 82q0 36 25.5 61.5t60.5 25.5q37 0 62.5 -25.5t25.5 -61.5t-25.5 -61.5t-62.5 -25.5q-35 0 -60.5 25.5t-25.5 61.5zM93 308v114q173 -2 296 -125.5t125 -296.5h-114q-3 127 -92 216q-87 89 -215 92zM94 531v114q130 -1 248.5 -52.5t204.5 -138t137.5 -205.5t52.5 -249 h-114q-1 107 -43.5 205t-113 169t-168 113.5t-204.5 43.5z" />
<glyph unicode="&#xe02d;" horiz-adv-x="793" d="M30 72q0 20 10 36l295 510q21 36 62 36t62 -36l295 -510q9 -16 9 -36q0 -31 -21 -51.5t-51 -20.5h-588q-30 0 -51.5 21t-21.5 51zM338 130q0 -25 17.5 -42t42.5 -17t42.5 17t17.5 42q0 26 -17.5 43.5t-42.5 17.5q-26 0 -43 -17.5t-17 -43.5zM344 247h107v239h-107v-239z " />
<glyph unicode="&#xe02e;" horiz-adv-x="783" d="M80 -2v581h83v83h125v-83h208v83h124v-83h83v-581h-623zM122 39h540v416h-540v-416zM205 538h41v83h-41v-83zM222 173q37 -46 94 -46q45 0 71.5 20t26.5 57q0 38 -38 52q28 14 28 48q0 32 -24.5 49.5t-62.5 17.5q-49 0 -81 -35l34 -31q19 20 46 20q40 0 40 -24t-28 -24 h-25v-46h28q35 0 35 -27q0 -30 -46 -30q-37 0 -62 28zM443 302h41v-171h47v237h-40q-6 -29 -48 -31v-35zM537 538h42v83h-42v-83z" />
<glyph unicode="&#xe02f;" horiz-adv-x="556" d="M56 196q0 93 65 156v136q0 63 45 108.5t109 45.5q63 0 108 -45.5t45 -108.5v-136q66 -64 66 -156q0 -91 -64.5 -155.5t-154.5 -64.5q-91 0 -155 64.5t-64 155.5zM108 196l10 -25h69v49h-69zM145 102l11 -25l24 -9l50 50l-35 35zM145 290l50 -50l35 34l-50 50l-24 -9z M204 403q67 25 141 0v85q0 29 -20.5 50t-49.5 21q-30 0 -50.5 -21t-20.5 -50v-85zM249 41l25 -10l24 10v69h-49v-69zM249 282h49v70l-24 10l-25 -10v-70zM317 118l50 -50l25 9l9 25l-49 51zM317 274l35 -34l49 50l-9 24l-25 10zM360 171h69l10 25l-10 24h-69v-49z" />
<glyph unicode="&#xe030;" horiz-adv-x="689" d="M44 421v106q0 64 45 108.5t108 44.5q64 0 109 -44.5t45 -108.5v-124q30 11 68 11q91 0 155 -64t64 -155t-64 -155t-155 -64t-155.5 64t-64.5 155q0 95 70 160v172q0 29 -21 49.5t-51 20.5q-29 0 -49.5 -20.5t-20.5 -49.5v-106h-83zM252 195l10 -24h70v49h-70zM290 102 l10 -25l25 -9l50 50l-35 35zM290 289l50 -50l35 35l-50 50l-25 -9zM394 40l25 -10l24 10v70h-49v-70zM394 282h49v69l-24 11l-25 -11v-69zM461 118l50 -50l26 9l9 25l-50 51zM461 274l35 -35l50 50l-9 25l-26 10zM504 171h70l10 24l-10 25h-70v-49z" />
<glyph unicode="&#xe031;" horiz-adv-x="769" d="M60 305q0 134 95 228.5t230 94.5t229.5 -94t94.5 -229q0 -136 -94 -230.5t-230 -94.5q-135 0 -230 94.5t-95 230.5zM120 305q0 -26 2 -37q27 -32 106 -46q-6 38 -6 80q0 26 3 55q-66 13 -94 25q-11 -38 -11 -77zM135 215q23 -57 63 -97q37 -37 85 -57q-32 45 -48 121 q-67 15 -100 33zM146 417q4 -4 83 -25q17 100 60 157q-60 -28 -91 -59q-34 -34 -52 -73zM258 302q0 -46 6 -87q48 -8 101 -10v141q-61 2 -106 7q0 -9 -0.5 -25.5t-0.5 -25.5zM264 387q49 -4 101 -6v186h-2q-34 -13 -60.5 -62t-38.5 -118zM273 176q9 -38 27 -70 q27 -65 65 -65v129q-47 2 -92 6zM403 41q54 0 93 135q-46 -4 -93 -6v-129zM403 205q51 1 101 9q6 32 6 88q0 33 -1 50q-51 -5 -106 -6v-141zM403 381q50 1 102 6q-21 116 -76 166q-21 14 -26 14v-186zM480 550q43 -56 59 -159q67 12 84 25q-45 99 -143 134zM485 61 q50 21 86 57q41 40 60 93q-37 -17 -97 -30q-18 -77 -49 -120zM541 221q72 12 90 29.5t18 54.5q0 40 -12 76q-46 -19 -93 -24q2 -19 2 -55q0 -39 -5 -81z" />
<glyph unicode="&#xe032;" horiz-adv-x="699" d="M100 0v608h335l164 -168v-440h-499zM172 72h355v344h-129v120h-226v-464zM221 147h254v28h-254v-28zM221 227h254v28h-254v-28zM221 307h254v28h-254v-28z" />
<glyph unicode="&#xe033;" horiz-adv-x="736" d="M94 3v594h327l160 -164v-123h-70v99h-126v118h-221v-454h169v-70h-239zM398 95h87v-91h69v91h88v67h-88v86h-69v-86h-87v-67z" />
<glyph unicode="&#xe034;" horiz-adv-x="720" d="M92 3v594h327l160 -164v-123h-70v99h-126v118h-221v-454h169v-70h-239zM406 65l48 -48l62 63l64 -65l49 49l-65 64l63 62l-48 48l-62 -62l-61 61l-49 -49l61 -61z" />
<glyph unicode="&#xe035;" horiz-adv-x="875" d="M92 0v608h433l-60 -62h-301v-474h355v209l72 81v-362h-499zM258 180l33 126l297 305q0 3 60 18l1 1l53 -55l-18 -60l-297 -307l-127 -29zM300 256l37 -36l31 7l18 18l4 28l-36 37l-28 -5l-18 -17zM619 644l45 45q21 21 50 21t49 -20q21 -20 20.5 -49t-22.5 -50l-46 -45 l14 60l-51 51z" />
<glyph unicode="&#xe036;" horiz-adv-x="920" d="M100 47v480q0 20 14 34.5t34 14.5h156q20 0 43 -11t37 -26l21 -24q13 -14 36.5 -25t42.5 -11h288q20 0 34 -14t14 -34v-384q0 -20 -14 -34t-34 -14h-624q-20 0 -34 14.5t-14 33.5z" />
<glyph unicode="&#xe037;" horiz-adv-x="913" d="M118 375l53 -374h588l54 374h-695zM171 428h588v54h-588v-54zM171 482v107h161l106 -107h-267z" />
<glyph unicode="&#xe038;" horiz-adv-x="953" d="M100 124v293q0 26 17.5 44t44.5 18h77v94h27v103h422v-103h27v-94h78q24 0 42 -18.5t18 -43.5v-293q0 -25 -18 -43.5t-42 -18.5h-61l27 -122h-553l22 122h-66q-27 0 -44.5 18t-17.5 44zM161 370q0 -18 13 -30.5t30 -12.5q18 0 31 12.5t13 30.5q0 17 -13 30t-31 13 q-17 0 -30 -13t-13 -30zM254 -23h454l-38 193h-387zM294 405h366v233h-366v-233zM345 67h111v28h-111v-28zM503 67h111v28h-111v-28z" />
<glyph unicode="&#xe039;" horiz-adv-x="806" d="M71 -16l44 168l394 392q24 7 48 2l-418 -418l-12 -44l48 -48l45 12l20 19l2 45l-32 32l383 383q6 -5 12 -12q51 -51 33 -95l-2 -4l-394 -394l-168 -41zM538 575l39 39q27 26 66 26.5t64 -24.5q29 -29 27.5 -66t-30.5 -66l-37 -37q3 5 6 13.5t-3.5 34.5t-32.5 51 q-47 47 -96 30z" />
<glyph unicode="&#xe03a;" d="M88 492l6 8l65 -42q7 -5 16.5 -7.5t25.5 4t29 26.5q14 20 14 38.5t-5.5 27t-11.5 12.5q-7 5 -66 43l6 8q35 15 64 14.5t48 -8.5l19 -9q0 -1 4 -4t10 -6.5t8 -5.5q47 -43 33 -111q-5 -23 0 -36t24 -31l349 -324q20 -19 19.5 -47t-20.5 -48q-20 -19 -47 -19t-47 20 l-329 337q-37 39 -67 28q-45 -15 -86 12q-7 5 -18 14t-28 40t-15 66zM642.5 42.5q0.5 -14.5 9.5 -24.5q27 -23 51 -1q10 10 10 25t-10 25q-11 11 -25.5 11t-25.5 -11q-10 -10 -9.5 -24.5z" />
<glyph unicode="&#xe03b;" horiz-adv-x="842" d="M36 459v20l5 8q56 -36 63 -40q6 -5 15 -7.5t24.5 3.5t28.5 26t13.5 37.5t-5 26t-11.5 11.5l-63 41l5 8q7 4 19.5 8.5t46 4.5t60.5 -16q0 -1 4 -4t9.5 -6.5t7.5 -5.5q46 -41 32 -106q-4 -21 0.5 -33.5t22.5 -30.5l83 -83l99 101l72 -74l-95 -97l176 -158 q20 -18 19.5 -44.5t-20.5 -46.5q-19 -19 -45.5 -19t-45.5 20l-161 170l-150 -181q-10 -12 -26.5 -11.5t-27.5 11.5l-39 40q-11 11 -11 27t11 27l172 160l-83 80q-37 36 -65 27q-41 -15 -82 11q-28 18 -42.5 46.5t-15.5 48.5zM373 596q52 13 97.5 13.5t71.5 -5t53 -22.5 t33.5 -23t21.5 -21l53 -53q6 -6 7.5 -33t11.5 -38q13 -13 30 -13q8 6 18 5t16 -8l11 -12q20 -20 0 -40l-54 -55q-8 -8 -20 -8.5t-20 8.5l-12 13q-7 6 -9.5 15.5t1.5 14.5q7 4 4 16t-15 24q-17 18 -38 21t-29 -8l-21 -21l-74 73l12 12q3 3 9 10q22 22 -1 49q-29 28 -68 44 t-64 18l-24 1zM568 48q0 -14 9 -23q11 -10 24.5 -10.5t23.5 9.5t10 24t-10 24t-23.5 10t-24.5 -10q-9 -10 -9 -24z" />
<glyph unicode="&#xe03c;" horiz-adv-x="568" d="M100 138v229h181l187 187v-603l-187 187h-181z" />
<glyph unicode="&#xe03d;" horiz-adv-x="733" d="M90 138v229h181l187 187v-603l-187 187h-181zM512 123q55 55 55 134q0 75 -51 127l49 49q78 -80 78 -182q0 -101 -79 -179z" />
<glyph unicode="&#xe03e;" horiz-adv-x="888" d="M90 138v229h181l187 187v-603l-187 187h-181zM512 123q55 55 55 134q0 75 -51 127l49 49q78 -80 78 -182q0 -101 -79 -179zM624 23q93 91 93 230q0 138 -93 231l53 53q58 -58 89.5 -133.5t31.5 -155.5q0 -162 -118 -280z" />
<glyph unicode="&#xe03f;" horiz-adv-x="770" d="M60 303q0 135 95 230t230 95q134 0 229.5 -95t95.5 -230q0 -134 -95.5 -229.5t-229.5 -95.5q-135 0 -230 95.5t-95 229.5zM131 304q0 -105 74.5 -179.5t179.5 -74.5t179 74.5t74 179.5t-74 179t-179 74t-179.5 -74t-74.5 -179zM241 425.5q-6 -17.5 7 -34.5l105 -115 q9 -12 26 -12h92q21 0 30.5 18t1 36t-31.5 18h-77l-94 104q-14 16 -33.5 9.5t-25.5 -24z" />
<glyph unicode="&#xe040;" horiz-adv-x="580" d="M100 60v536q0 29 18.5 47t48.5 18h246q30 0 48.5 -18t18.5 -47v-536q0 -25 -17.5 -42.5t-42.5 -17.5h-260q-25 0 -42.5 17.5t-17.5 42.5zM136 132h308v397h-308v-397zM228 605q0 -13 12 -13h100q12 0 12 13t-12 13h-100q-12 0 -12 -13zM252 64q0 -15 11 -26.5t27 -11.5 t27 11.5t11 26.5q0 16 -11 27t-27 11t-27 -11t-11 -27z" />
<glyph unicode="&#xe041;" horiz-adv-x="600" d="M100 60v541q0 25 17.5 42.5t42.5 17.5h280q25 0 42.5 -17.5t17.5 -42.5v-541q0 -25 -17.5 -42.5t-42.5 -17.5h-280q-25 0 -42.5 17.5t-17.5 42.5zM162 397h276v194h-276v-194zM173 205q0 -52 37.5 -89.5t89.5 -37.5t89.5 37t37.5 90t-37.5 90t-89.5 37t-89.5 -37.5 t-37.5 -89.5zM252 205q0 20 14 34t34 14t34 -14t14 -34t-14 -34t-34 -14t-34 14t-14 34z" />
<glyph unicode="&#xe042;" horiz-adv-x="1045" d="M100 89v422h775v-141h70v-140h-70v-141h-775zM170 159h634v282h-634v-282z" />
<glyph unicode="&#xe043;" horiz-adv-x="1045" d="M100 89v422h775v-141h70v-140h-70v-141h-775zM170 159h634v282h-634v-282zM241 214h301l-90 172h-211v-172z" />
<glyph unicode="&#xe044;" horiz-adv-x="1234" d="M194 89v422h775v-141h70v-140h-70v-141h-775zM265 159h634v282h-634v-282zM335 224h493v152h-493v-152z" />
<glyph unicode="&#xe045;" horiz-adv-x="1045" d="M100 89v422h775v-141h70v-140h-70v-141h-775zM170 159h634v282h-634v-282zM236 218l220 54l54 -54l219 164l-219 -55l-54 55z" />
<glyph unicode="&#xe046;" horiz-adv-x="874" d="M96.5 93.5q-10.5 32.5 1 73t47.5 78.5q50 53 197 198q41 40 125 124q37 37 71 45t67 -9t78 -60q49 -46 74.5 -94t24 -84t-22.5 -63q-58 -67 -287 -296q-22 -22 -45 0q-9 9 -9 22t9 22q228 228 284 293q6 6 6.5 19t-4.5 32.5t-24 47t-49 56.5q-8 7 -22 22t-19.5 20 t-17 11.5t-20 4t-21.5 -10t-29 -23.5q-21 -21 -62.5 -62t-61.5 -61q-147 -145 -197 -198q-27 -29 -32 -60.5t4.5 -52.5t25.5 -37l4 -4q20 -19 35 -19t41 24q4 4 12 11.5t20 19.5t22 21q204 201 221 222q8 10 11.5 22.5t-2.5 22.5q-19 15 -53 -23q-40 -42 -91 -93t-83 -81.5 t-33 -31.5q-9 -9 -22 -9t-22 10q-9 9 -9 22t10 22l1 1q120 117 203 204q27 28 55 38.5t48.5 6t36.5 -18.5q26 -26 24 -64t-25 -67q-29 -37 -226 -228q-10 -10 -22 -21.5t-20 -19.5l-11 -11q-42 -42 -86 -42q-42 0 -79 38l-4 3q-13 14 -25 34.5t-22.5 53z" />
<glyph unicode="&#xe047;" horiz-adv-x="752" d="M76 465l20 83h118h6q-4 18 -4 27q0 40 21.5 68.5t51.5 28.5h181q31 0 52 -28t21 -69q0 -9 -4 -27h117l20 -83h-46l-10 -467h-488l-10 467h-46zM204 81h56v360h-56v-360zM310 548h139v61h-139v-61zM343 81h66v360h-66v-360zM491 81h57v360h-57v-360z" />
<glyph unicode="&#xe048;" horiz-adv-x="813" d="M94 284v35q0 14 10 24.5t24 10.5h66q6 31 23 59l-50 51q-11 10 -11 24t11 25l24 24q11 11 25 11t25 -11l49 -49q25 16 56 24v76q0 14 10 24.5t24 10.5h35q14 0 24.5 -10.5t10.5 -24.5v-76q27 -8 51 -21l59 59q10 10 24.5 10t24.5 -10l25 -25q10 -11 10 -24.5t-10 -24.5 l-58 -58q13 -22 21 -47h88q14 0 24 -10.5t10 -24.5v-35q0 -14 -10 -24.5t-24 -10.5h-83q-5 -23 -17 -48l61 -62q10 -10 10 -24t-10 -25l-24 -24q-10 -11 -25 -11t-25 11l-56 56q-22 -16 -49 -25v-82q0 -14 -10 -24.5t-24 -10.5h-35q-14 0 -24.5 10.5t-10.5 24.5v73 q-32 5 -57 18l-53 -53q-11 -10 -25 -10t-24 10l-25 25q-10 10 -10 24.5t10 24.5l47 47q-17 26 -28 58h-70q-14 0 -24 10.5t-10 24.5zM311 310q0 -36 25.5 -61.5t61.5 -25.5t61.5 25.5t25.5 61.5t-25.5 61.5t-61.5 25.5t-61.5 -25.5t-25.5 -61.5z" />
<glyph unicode="&#xe049;" horiz-adv-x="790" d="M60 378h256l79 242l79 -242h256l-207 -150l79 -244l-207 150l-208 -150l80 244z" />
<glyph unicode="&#xe04a;" horiz-adv-x="768" d="M80 367q0 65 40 105t106 40q24 0 44.5 -5.5t31.5 -10t30.5 -22.5t23.5 -23t28 -32q47 54 67 68q37 25 91 25q66 0 106 -40t40 -105q0 -85 -76 -160l-228 -227l-228 227q-76 75 -76 160z" />
<glyph unicode="&#xe04b;" horiz-adv-x="817" d="M87 72v84q19 49 53 83l36 36q36 36 82 56l62 6q50 -11 53 -8q4 4 -9 52l7 62q20 47 55 82l36 36q36 36 83 54h84q49 -19 66 -36q19 -21 36 -65v-84q-18 -47 -54 -83l-36 -36q-36 -36 -82 -56l-62 -6q-48 11 -52 9q-2 -2 11 -52l-5 -69q-17 -44 -54 -83l-36 -35 q-36 -36 -83 -54h-84q-50 19 -68 39q-20 18 -39 68zM148 104q11 -26 31 -46q11 -11 34 -23t33 -8q26 9 61 46l36 35q36 36 43 54q4 9 -9 13q-12 3 -24 -10q-14 -14 -34.5 -13t-34.5 16q-15 14 -16 34t12 34q17 16 8 27q-3 3 -7 1q-12 -4 -51 -43l-36 -35q-17 -17 -33 -44.5 t-13 -37.5zM433 406q0 -12 24 7l9 9q13 13 33 12t35 -16q14 -15 15 -34.5t-12 -33.5q-16 -16 -7 -27q3 -3 7 -1q13 5 50 42l36 36q34 34 46 62q3 10 -8 32.5t-20 30.5q-10 10 -32 21t-31 7q-24 -8 -62 -46l-36 -35q-48 -51 -47 -66z" />
<glyph unicode="&#xe04c;" horiz-adv-x="929" d="M100 0v507h114v48h72v-48h543v-507h-729zM137 318h200q49 62 128 62q78 0 127 -62h200v152h-655v-152zM329 217q0 -56 40 -96t96 -40t95.5 40t39.5 96t-39.5 96t-95.5 40t-96 -40t-40 -96zM386 217q0 -32 23.5 -55t55.5 -23t55 23t23 55t-23 55t-55 23t-55.5 -23 t-23.5 -55z" />
<glyph unicode="&#xe04d;" horiz-adv-x="750" d="M50 112q-4 13 3 25l194 336l158 99l76 -43q2 5 7 29q0 1 2 10.5t3 13.5t4 13.5t5.5 15t6.5 15t9.5 16.5t12 16t15 17t18.5 16q32 26 82 3q26 -14 40 -32q14 -22 16 -46q-2 -41 -52 -65q-35 -16 -87 -22q-42 -5 -56 -15l74 -43l-8 -186l-194 -336q-8 -12 -20.5 -16 t-23.5 3l-269 156q-12 7 -16 20zM364.5 401.5q7.5 -28.5 33.5 -43.5q25 -14 53.5 -6.5t43.5 32.5q11 20 8.5 42.5t-16.5 39.5l-34 21q-23 8 -46 -1t-35 -31q-15 -25 -7.5 -53.5zM500 530q17 11 61 15q49 6 82 21q41 18 43 50q0 37 -42 61q-1 1 -5 3q-39 19 -66 -2 q-56 -43 -69 -122q0 -4 -2 -12q0 -2 -0.5 -6.5t-1.5 -7.5z" />
<glyph unicode="&#xe04e;" horiz-adv-x="825" d="M88 321v162l121 122h163l365 -366l-284 -284zM184 444q0 -27 19 -45.5t45 -18.5q27 0 46 18.5t19 45.5t-19 46t-46 19q-26 0 -45 -19t-19 -46z" />
<glyph unicode="&#xe04f;" horiz-adv-x="948" d="M193 169v211q0 87 61.5 149t149.5 62v-70q-58 0 -99.5 -41.5t-41.5 -99.5h141v-211h-211zM545 169v211q0 87 61.5 149t149.5 62v-70q-58 0 -99.5 -41.5t-41.5 -99.5h141v-211h-211z" />
<glyph unicode="&#xe050;" horiz-adv-x="948" d="M193 169v70q58 0 99 41.5t41 99.5h-140v211h211v-211q0 -87 -62 -149t-149 -62zM545 169v70q58 0 99 41.5t41 99.5h-140v211h211v-211q0 -87 -62 -149t-149 -62z" />
<glyph unicode="&#xe051;" horiz-adv-x="832" d="M95 107v481h642v-481h-256l-226 -155v155h-160zM175 187h95h66v-76l90 61l29 15h26h176v321h-482v-321z" />
<glyph unicode="&#xe052;" horiz-adv-x="821" d="M100 218v308q0 68 68 68h486q67 0 67 -68v-310q0 -65 -67 -65h-219l-242 -195l50 195h-75q-68 0 -68 67z" />
<glyph unicode="&#xe053;" horiz-adv-x="746" d="M82 304v153h216l-86 53l86 85l75 -124l101 166l102 -102l-128 -78h216v-153h-36v-304h-212h-85h-213v304h-36zM121 342h31h5h174v77h-210v-77zM157 38h174v281h-174v-281zM257 515l91 -56l-56 91zM414 475l109 66l-43 43zM416 38h173v281h-173v-281zM416 342h173h26h11 v77h-210v-77z" />
<glyph unicode="&#xe054;" horiz-adv-x="990" d="M105 131v104q0 158 118.5 274t281.5 116q160 0 270 -113t110 -277v-104q0 -11 -7.5 -18.5t-18.5 -7.5t-18.5 7.5t-7.5 18.5v104q0 142 -95 240t-233 98q-142 0 -245 -100.5t-103 -237.5v-104q0 -11 -7.5 -18.5t-18.5 -7.5t-18.5 7.5t-7.5 18.5zM209 79v104q0 43 23 73.5 t55 30.5t55 -30.5t23 -73.5v-104q0 -43 -23 -73.5t-55 -30.5t-55 30.5t-23 73.5zM625 79v104q0 43 23 73.5t55 30.5t55 -30.5t23 -73.5v-104q0 -43 -23 -73.5t-55 -30.5t-55 30.5t-23 73.5z" />
<glyph unicode="&#xe055;" horiz-adv-x="708" d="M100 82v465q0 25 17.5 42.5t42.5 17.5h372v-461h-326q-32 0 -51 -16.5t-19 -45.5v-2q0 -30 19.5 -48t50.5 -18h374v501h28v-537h-402q-45 0 -75.5 28.5t-30.5 73.5zM193 83q0 -15 17 -15h322v28h-322q-17 0 -17 -13z" />
<glyph unicode="&#xe056;" horiz-adv-x="825" d="M88 138v121h40v82h-40v121h40v163h528l81 -81v-569h-609v163h-40zM118 168h91v61h-91v-61zM118 371h91v61h-91v-61zM331 341h244v121h-244v-121z" />
<glyph unicode="&#xe057;" horiz-adv-x="1035" d="M210 89v422h615v-422h-615zM248 127h81q-4 12 -4 19q0 24 17 41t41 17t40.5 -17t16.5 -41q0 -10 -3 -19h161q-4 8 -4 19q0 24 17 41t41 17q23 0 40 -17t17 -41q0 -10 -3 -19h80v346h-538v-346zM287 271q-1 17 3 25q2 3 41 21q18 7 22 10v17q-6 5 -8 21q-3 -1 -6 2.5 t-3 7.5q0 14 5 13q-1 8 -1 18q1 11 11 19.5t24 8.5q15 0 24.5 -8.5t11.5 -19.5q0 -2 -2 -18q6 1 6 -13q0 -3 -3 -7t-6 -3q-2 -16 -8 -21v-17l22 -10q39 -18 41 -21l3 -25h-89h-88zM586 274v18h127v-18h-127zM586 331v18h127v-18h-127zM586 390v18h127v-18h-127z" />
<glyph unicode="&#xe058;" horiz-adv-x="967" d="M100 127v369h106v98h661v-505q0 -35 -26 -62t-58 -27h-574q-109 0 -109 127zM154 127q0 -68 25 -68q27 0 27 68v315h-52v-315zM245 54h538q13 0 21.5 11.5t8.5 23.5v451h-553v-413q0 -43 -15 -73zM346 122v18h127v-18h-127zM346 179v18h127v-18h-127zM346 234v18h127v-18 h-127zM346 291v18h127v-18h-127zM346 350v18h127v-18h-127zM365 426v35h333v-35h-333zM523 165v203h213v-203h-213z" />
<glyph unicode="&#xe059;" horiz-adv-x="779" d="M32 0q-3 9 0 57q18 9 76.5 27.5t112 33.5t56.5 17l1 36l15 4q6 56 6 65q-23 45 -28 71q-19 0 -21 19q-1 8 -1.5 24t-3.5 24q-2 10 4 19t13 7q-20 103 0 131q49 70 158 89q25 3 33 -1l3 -1q1 -1 0 -3t-3 -5t-7 -8q6 -4 15 -10.5t27.5 -28t26.5 -44.5q7 -26 6 -64.5 t-6 -54.5q0 -1 3.5 0t7 -3.5t2.5 -12.5q0 -4 -1 -11t-1 -12.5t-1 -13t-2 -12t-2.5 -11t-3 -9.5t-4 -6.5t-5 -3t-6.5 1.5q-1 -64 -20 -77q-6 -50 3 -52h13q5 -41 15 -52q214 -55 235 -79v-51h-716z" />
<glyph unicode="&#xe05a;" horiz-adv-x="765" d="M60 548q0 15 8 23.5t16 9.5l7 1h2q2 0 5.5 0.5t7.5 0.5q99 0 127 -82l433 -31q17 -2 28 -13t11 -27v-225q0 -17 -12 -29t-29 -12h-382q-14 0 -25.5 10t-13.5 24l-71 254q-12 46 -33 52q-8 2 -33 3t-35.5 9t-10.5 32zM213 50q0 -28 19.5 -47.5t47.5 -19.5t47.5 19.5 t19.5 47.5t-19.5 47.5t-47.5 19.5t-47.5 -19.5t-19.5 -47.5zM250 427l30 -91h98v83zM288 313l24 -77h66v77h-90zM410 236h100v77h-100v-77zM410 336h100v74l-100 7v-81zM538 50q0 -28 19.5 -47.5t46.5 -19.5q28 0 47.5 19.5t19.5 47.5q-1 28 -20 47.5t-47 19.5 q-27 0 -46.5 -19.5t-19.5 -47.5zM542 236h91v77h-91v-77zM542 336h91v65l-91 7v-72z" />
<glyph unicode="&#xe05b;" horiz-adv-x="675" d="M72 3v600q0 8 18 15t29 7q5 0 10.5 -0.5t9.5 -0.5h5q53 6 252 -24q12 -22 19 -47q1 -2 1 -3t1 -1q5 0 15 -3q49 -7 75 -2.5t81 22.5q10 3 15 5l-1 -264q-47 -15 -85.5 -21t-60 -3.5t-36.5 7t-20 9.5l-5 5v42q-39 5 -125.5 -20.5t-119.5 -43.5q-6 -3 -9 -8v-271l-36 -28z M141 290v309q0 5 2 5t5 -8q10 -29 17.5 -74.5t5.5 -112.5t-23 -116z" />
<glyph unicode="&#xe05c;" horiz-adv-x="752" d="M79 87q-1 28 12.5 63.5t42.5 65.5q53 56 109 56q49 0 88 -39l7 9l-18 24l-77 50l-114 184v125l249 -330l250 330v-125l-115 -184l-79 -50l-17 -23l7 -9q38 38 87 38q56 0 109 -56q29 -30 42 -65.5t11 -63.5t-12 -52q-12 -27 -35 -43.5t-50 -16.5q-11 0 -38 16.5t-32 21.5 l-29 42l-99 134l-96 -130l-29 -43q-3 -4 -33 -22.5t-41 -18.5q-27 0 -52 16.5t-37 43.5q-10 24 -11 52zM144 110.5q-7 -33.5 4 -50.5q8 -20 22.5 -21.5t30.5 16.5l49 69v2l12 15l30 43q-24 26 -49 26q-30 0 -64 -37q-28 -29 -35 -62.5zM462 184l9 -12l35 -46v-4l49 -70 q15 -15 26 -15q15 0 25 23q11 17 4 50.5t-35 62.5q-34 37 -64 37q-25 0 -49 -26z" />
<glyph unicode="&#xe05d;" horiz-adv-x="823" d="M87 -25l50 84l157 157l-26 26l-94 95l85 85l52 -52l127 127l43 128l255 -255l-128 -43l-127 -127l51 -52l-85 -85l-120 120l26 -26l-26 26l-157 -157zM286 224l8 -8z" />
<glyph unicode="&#xe05e;" horiz-adv-x="545" d="M57 451q0 89 62.5 151.5t152.5 62.5t153.5 -62.5t63.5 -151.5q0 -17 -3 -34.5t-11 -36.5t-14 -32.5t-19 -34t-19 -30t-21.5 -31t-18.5 -26.5q-83 -118 -102 -232l-1 -6q-1 -4 -3.5 -6t-5 0t-3.5 6q-2 12 -7 34t-31.5 84.5t-66.5 119.5q-7 10 -22.5 31.5t-20.5 29 t-16.5 24.5t-15 24t-11 21t-9.5 23t-5.5 21.5t-4.5 24.5t-1 26zM193 447q0 -35 24 -60t57 -25q35 0 59 25t24 60t-24 58.5t-59 23.5q-33 0 -57 -24t-24 -58z" />
<glyph unicode="&#xe05f;" horiz-adv-x="984" d="M123 0v600h738v-600h-738zM195 72h594v456h-594v-456zM262 139l57 69q10 10 26.5 10t28.5 -5l11 -5q3 5 9.5 13.5t34 29t63.5 33.5l59 -60l99 214l73 -132v-167h-461zM319 404q0 -28 20.5 -48.5t48.5 -20.5q29 0 49 20t20 49t-20 49t-49 20q-28 0 -48.5 -20.5 t-20.5 -48.5z" />
<glyph unicode="&#xe060;" horiz-adv-x="749" d="M96 0v65h411v-65h-411zM96 144v65h557v-65h-557zM96 288v65h411v-65h-411zM96 432v65h557v-65h-557z" />
<glyph unicode="&#xe061;" horiz-adv-x="749" d="M94 144v65h557v-65h-557zM94 432v65h557v-65h-557zM244 0v65h411v-65h-411zM244 288v65h411v-65h-411z" />
<glyph unicode="&#xe062;" horiz-adv-x="749" d="M96 144v65h557v-65h-557zM96 432v65h557v-65h-557zM166 0v65h411v-65h-411zM166 288v65h411v-65h-411z" />
<glyph unicode="&#xe063;" horiz-adv-x="841" d="M100 51v128h128v-128h-128zM100 233v130h128v-130h-128zM100 418v129h128v-129h-128zM314 81v65h427v-65h-427zM314 255v65h427v-65h-427zM314 439v65h427v-65h-427z" />
<glyph unicode="&#xe064;" horiz-adv-x="635" d="M60 42l92 91l-58 58h168v-168l-58 58l-91 -92zM60 452l53 52l91 -93l58 59v-168h-168l58 58zM373 23v168h168l-58 -58l92 -91l-52 -53l-92 92zM373 302v168l58 -58l92 92l52 -52l-92 -92l58 -58h-168z" />
<glyph unicode="&#xe065;" horiz-adv-x="695" d="M100 -1v168l58 -58l91 92l53 -53l-92 -91l58 -58h-168zM100 326v168h168l-58 -58l92 -92l-53 -52l-91 93zM393 148l52 53l92 -92l58 58v-168h-168l58 58zM393 344l92 92l-58 58h168v-168l-58 58l-92 -92z" />
<glyph unicode="&#xe066;" horiz-adv-x="808" d="M100 63v481q0 63 63 63h481q34 0 49 -15t15 -48v-481q0 -63 -64 -63h-165v198h78v95h-78v63q0 38 36 38h42v89h-89q-96 0 -96 -89v-101h-64v-95h64v-198h-209q-63 0 -63 63z" />
<glyph unicode="&#xe067;" horiz-adv-x="464" d="M80 278v127h73v93q0 118 127 118h104v-117h-56q-29 0 -38.5 -14t-9.5 -39v-41h104l-10 -127h-94v-278h-127v278h-73z" />
<glyph unicode="&#xe068;" horiz-adv-x="808" d="M100 63v481q0 63 63 63h481q34 0 49 -15t15 -48v-481q0 -63 -64 -63h-481q-63 0 -63 63zM273 272q0 -74 49 -120q54 -51 118 -51h68q20 0 33.5 14t13.5 34q0 19 -13.5 33t-33.5 14h-65q-33 0 -55 22t-22 54v42h142q20 0 33.5 14t13.5 33q0 20 -13.5 34t-33.5 14h-142v59 q0 19 -14 33.5t-32 14.5q-20 0 -33.5 -14t-13.5 -34v-196z" />
<glyph unicode="&#xe069;" horiz-adv-x="526" d="M86 229v279q0 26 18.5 44.5t45.5 18.5q26 0 44.5 -18.5t18.5 -44.5v-93h163q27 0 45.5 -18.5t18.5 -45.5q0 -26 -18.5 -44.5t-45.5 -18.5h-163v-59q0 -43 30 -72.5t75 -29.5h58q27 0 45.5 -18.5t18.5 -44.5q0 -27 -18.5 -45.5t-45.5 -18.5h-62h-1q-88 0 -159 68 q-68 66 -68 161z" />
</font>
</defs>
</svg>
